<svg data-v-fde0c5aa="" xmlns="http://www.w3.org/2000/svg" viewBox="0 0 300 300" class="font"><!----><defs data-v-fde0c5aa=""><!----></defs><rect data-v-fde0c5aa="" fill="transparent" x="0" y="0" width="300px" height="300px" class="logo-background-square"></rect><defs data-v-fde0c5aa=""><!----></defs><g data-v-fde0c5aa="" id="ec0db5d6-a4e5-433f-b122-bee1fb873e07" fill="#1C472B" transform="matrix(3.1227822502480502,0,0,3.1227822502480502,37.15826807037605,124.7054633262732)"><path d="M2.39 13.02L2.39 13.02L1.20 13.02L1.20 13.02Q0.91 13.02 0.91 12.73L0.91 12.73L0.91 4.31L0.91 4.31Q0.91 4.02 1.20 4.02L1.20 4.02L4.62 4.02L4.62 4.02Q5.71 4.02 6.31 4.61L6.31 4.61L6.31 4.61Q6.92 5.21 6.92 6.30L6.92 6.30L6.92 7.64L6.92 7.64Q6.92 8.74 6.31 9.33L6.31 9.33L6.31 9.33Q5.71 9.93 4.62 9.93L4.62 9.93L2.86 9.93L2.86 9.93Q2.69 9.93 2.69 10.08L2.69 10.08L2.69 12.73L2.69 12.73Q2.69 13.02 2.39 13.02ZM2.84 8.37L2.84 8.37L4.33 8.37L4.33 8.37Q4.77 8.37 4.96 8.18L4.96 8.18L4.96 8.18Q5.14 7.99 5.14 7.56L5.14 7.56L5.14 6.38L5.14 6.38Q5.14 5.94 4.96 5.75L4.96 5.75L4.96 5.75Q4.77 5.56 4.33 5.56L4.33 5.56L2.84 5.56L2.84 5.56Q2.69 5.56 2.69 5.71L2.69 5.71L2.69 8.22L2.69 8.22Q2.69 8.37 2.84 8.37ZM10.70 13.02L10.70 13.02L10.36 13.02L10.36 13.02Q9.25 13.02 8.65 12.43L8.65 12.43L8.65 12.43Q8.05 11.84 8.05 10.74L8.05 10.74L8.05 8.16L8.05 8.16Q8.05 7.06 8.65 6.47L8.65 6.47L8.65 6.47Q9.25 5.88 10.36 5.88L10.36 5.88L13.59 5.88L13.59 5.88Q13.90 5.88 13.90 6.17L13.90 6.17L13.90 12.73L13.90 12.73Q13.90 13.02 13.59 13.02L13.59 13.02L12.42 13.02L12.42 13.02Q12.12 13.02 12.12 12.73L12.12 12.73L12.12 12.26L12.07 12.26L12.07 12.26Q11.91 12.64 11.52 12.83L11.52 12.83L11.52 12.83Q11.13 13.02 10.70 13.02ZM12.12 10.42L12.12 10.42L12.12 7.57L12.12 7.57Q12.12 7.42 11.96 7.42L11.96 7.42L10.64 7.42L10.64 7.42Q10.19 7.42 10.01 7.61L10.01 7.61L10.01 7.61Q9.83 7.80 9.83 8.25L9.83 8.25L9.83 10.65L9.83 10.65Q9.83 11.10 10.01 11.29L10.01 11.29L10.01 11.29Q10.19 11.48 10.64 11.48L10.64 11.48L11.16 11.48L11.16 11.48Q12.12 11.48 12.12 10.42ZM18.06 13.02L18.06 13.02L17.49 13.02L17.49 13.02Q16.41 13.02 15.86 12.43L15.86 12.43L15.86 12.43Q15.30 11.84 15.30 10.74L15.30 10.74L15.30 8.16L15.30 8.16Q15.30 7.06 15.86 6.47L15.86 6.47L15.86 6.47Q16.41 5.88 17.49 5.88L17.49 5.88L18.06 5.88L18.06 5.88Q18.49 5.88 18.89 6.07L18.89 6.07L18.89 6.07Q19.28 6.26 19.43 6.64L19.43 6.64L19.49 6.64L19.49 3.47L19.49 3.47Q19.49 3.18 19.78 3.18L19.78 3.18L20.97 3.18L20.97 3.18Q21.27 3.18 21.27 3.47L21.27 3.47L21.27 12.73L21.27 12.73Q21.27 13.02 20.97 13.02L20.97 13.02L19.78 13.02L19.78 13.02Q19.49 13.02 19.49 12.73L19.49 12.73L19.49 12.26L19.43 12.26L19.43 12.26Q19.28 12.64 18.89 12.83L18.89 12.83L18.89 12.83Q18.49 13.02 18.06 13.02ZM19.49 10.42L19.49 10.42L19.49 8.48L19.49 8.48Q19.49 7.42 18.52 7.42L18.52 7.42L17.89 7.42L17.89 7.42Q17.44 7.42 17.26 7.61L17.26 7.61L17.26 7.61Q17.08 7.80 17.08 8.25L17.08 8.25L17.08 10.65L17.08 10.65Q17.08 11.10 17.26 11.29L17.26 11.29L17.26 11.29Q17.44 11.48 17.89 11.48L17.89 11.48L18.52 11.48L18.52 11.48Q19.49 11.48 19.49 10.42ZM28.07 13.02L28.07 13.02L24.98 13.02L24.98 13.02Q23.87 13.02 23.27 12.43L23.27 12.43L23.27 12.43Q22.67 11.84 22.67 10.74L22.67 10.74L22.67 8.16L22.67 8.16Q22.67 7.06 23.27 6.47L23.27 6.47L23.27 6.47Q23.87 5.88 24.98 5.88L24.98 5.88L26.08 5.88L26.08 5.88Q27.19 5.88 27.79 6.47L27.79 6.47L27.79 6.47Q28.39 7.06 28.39 8.16L28.39 8.16L28.39 9.94L28.39 9.94Q28.39 10.23 28.10 10.23L28.10 10.23L24.58 10.23L24.58 10.23Q24.42 10.23 24.42 10.39L24.42 10.39L24.42 10.70L24.42 10.70Q24.42 11.13 24.61 11.32L24.61 11.32L24.61 11.32Q24.79 11.51 25.24 11.51L25.24 11.51L28.07 11.51L28.07 11.51Q28.36 11.51 28.36 11.82L28.36 11.82L28.36 12.74L28.36 12.74Q28.36 12.89 28.30 12.96L28.30 12.96L28.30 12.96Q28.24 13.02 28.07 13.02ZM24.58 9.04L24.58 9.04L26.49 9.04L26.49 9.04Q26.64 9.04 26.64 8.89L26.64 8.89L26.64 8.22L26.64 8.22Q26.64 7.77 26.46 7.59L26.46 7.59L26.46 7.59Q26.28 7.41 25.83 7.41L25.83 7.41L25.24 7.41L25.24 7.41Q24.79 7.41 24.61 7.59L24.61 7.59L24.61 7.59Q24.43 7.77 24.43 8.22L24.43 8.22L24.43 8.89L24.43 8.89Q24.43 9.04 24.58 9.04ZM31.28 13.02L31.28 13.02L30.09 13.02L30.09 13.02Q29.79 13.02 29.79 12.73L29.79 12.73L29.79 3.47L29.79 3.47Q29.79 3.18 30.09 3.18L30.09 3.18L31.28 3.18L31.28 3.18Q31.57 3.18 31.57 3.47L31.57 3.47L31.57 12.73L31.57 12.73Q31.57 13.02 31.28 13.02ZM39.51 13.02L39.51 13.02L37.55 13.02L37.55 13.02Q37.24 13.02 37.20 12.73L37.20 12.73L35.70 4.31L35.70 4.31Q35.66 4.02 35.99 4.02L35.99 4.02L37.45 4.02L37.45 4.02Q37.77 4.02 37.79 4.31L37.79 4.31L38.60 11.21L38.70 11.21L40.04 4.27L40.04 4.27Q40.08 4.02 40.33 4.02L40.33 4.02L41.90 4.02L41.90 4.02Q42.17 4.02 42.21 4.26L42.21 4.26L43.58 11.21L43.69 11.21L44.49 4.33L44.49 4.33Q44.51 4.02 44.83 4.02L44.83 4.02L46.28 4.02L46.28 4.02Q46.62 4.02 46.58 4.33L46.58 4.33L45.07 12.73L45.07 12.73Q45.02 13.02 44.74 13.02L44.74 13.02L42.77 13.02L42.77 13.02Q42.48 13.02 42.43 12.73L42.43 12.73L41.17 6.16L41.12 6.16L39.84 12.73L39.84 12.73Q39.79 13.02 39.51 13.02ZM50.06 13.02L50.06 13.02L49.73 13.02L49.73 13.02Q48.62 13.02 48.02 12.43L48.02 12.43L48.02 12.43Q47.42 11.84 47.42 10.74L47.42 10.74L47.42 8.16L47.42 8.16Q47.42 7.06 48.02 6.47L48.02 6.47L48.02 6.47Q48.62 5.88 49.73 5.88L49.73 5.88L52.96 5.88L52.96 5.88Q53.27 5.88 53.27 6.17L53.27 6.17L53.27 12.73L53.27 12.73Q53.27 13.02 52.96 13.02L52.96 13.02L51.79 13.02L51.79 13.02Q51.49 13.02 51.49 12.73L51.49 12.73L51.49 12.26L51.44 12.26L51.44 12.26Q51.28 12.64 50.89 12.83L50.89 12.83L50.89 12.83Q50.50 13.02 50.06 13.02ZM51.49 10.42L51.49 10.42L51.49 7.57L51.49 7.57Q51.49 7.42 51.32 7.42L51.32 7.42L50.01 7.42L50.01 7.42Q49.56 7.42 49.38 7.61L49.38 7.61L49.38 7.61Q49.20 7.80 49.20 8.25L49.20 8.25L49.20 10.65L49.20 10.65Q49.20 11.10 49.38 11.29L49.38 11.29L49.38 11.29Q49.56 11.48 50.01 11.48L50.01 11.48L50.53 11.48L50.53 11.48Q51.49 11.48 51.49 10.42ZM54.96 7.42L54.96 7.42L54.40 7.42L54.40 7.42Q54.24 7.42 54.17 7.36L54.17 7.36L54.17 7.36Q54.11 7.31 54.11 7.14L54.11 7.14L54.11 6.17L54.11 6.17Q54.11 5.88 54.40 5.88L54.40 5.88L54.96 5.88L54.96 5.88Q55.12 5.88 55.12 5.73L55.12 5.73L55.12 4.40L55.12 4.40Q55.12 4.10 55.43 4.10L55.43 4.10L56.60 4.10L56.60 4.10Q56.90 4.10 56.90 4.40L56.90 4.40L56.90 5.73L56.90 5.73Q56.90 5.88 57.06 5.88L57.06 5.88L58.16 5.88L58.16 5.88Q58.45 5.88 58.45 6.17L58.45 6.17L58.45 7.14L58.45 7.14Q58.45 7.29 58.39 7.36L58.39 7.36L58.39 7.36Q58.32 7.42 58.16 7.42L58.16 7.42L57.06 7.42L57.06 7.42Q56.90 7.42 56.90 7.57L56.90 7.57L56.90 10.67L56.90 10.67Q56.90 11.10 57.09 11.29L57.09 11.29L57.09 11.29Q57.29 11.48 57.74 11.48L57.74 11.48L58.30 11.48L58.30 11.48Q58.59 11.48 58.59 11.77L58.59 11.77L58.59 12.74L58.59 12.74Q58.59 12.89 58.53 12.96L58.53 12.96L58.53 12.96Q58.46 13.02 58.30 13.02L58.30 13.02L57.44 13.02L57.44 13.02Q56.34 13.02 55.73 12.43L55.73 12.43L55.73 12.43Q55.12 11.84 55.12 10.75L55.12 10.75L55.12 7.57L55.12 7.57Q55.12 7.42 54.96 7.42ZM64.30 11.77L64.30 11.77L64.30 12.74L64.30 12.74Q64.30 12.89 64.24 12.96L64.24 12.96L64.24 12.96Q64.18 13.02 64.01 13.02L64.01 13.02L61.92 13.02L61.92 13.02Q60.82 13.02 60.21 12.43L60.21 12.43L60.21 12.43Q59.61 11.84 59.61 10.74L59.61 10.74L59.61 8.16L59.61 8.16Q59.61 7.06 60.21 6.47L60.21 6.47L60.21 6.47Q60.82 5.88 61.92 5.88L61.92 5.88L64.01 5.88L64.01 5.88Q64.30 5.88 64.30 6.17L64.30 6.17L64.30 7.14L64.30 7.14Q64.30 7.29 64.24 7.36L64.24 7.36L64.24 7.36Q64.18 7.42 64.01 7.42L64.01 7.42L62.20 7.42L62.20 7.42Q61.77 7.42 61.58 7.61L61.58 7.61L61.58 7.61Q61.39 7.80 61.39 8.25L61.39 8.25L61.39 10.65L61.39 10.65Q61.39 11.10 61.58 11.29L61.58 11.29L61.58 11.29Q61.77 11.48 62.20 11.48L62.20 11.48L64.01 11.48L64.01 11.48Q64.30 11.48 64.30 11.77ZM66.99 13.02L66.99 13.02L65.80 13.02L65.80 13.02Q65.51 13.02 65.51 12.73L65.51 12.73L65.51 3.47L65.51 3.47Q65.51 3.18 65.80 3.18L65.80 3.18L66.99 3.18L66.99 3.18Q67.28 3.18 67.28 3.47L67.28 3.47L67.28 6.64L67.34 6.64L67.34 6.64Q67.65 5.88 68.71 5.88L68.71 5.88L69.16 5.88L69.16 5.88Q71.36 5.88 71.36 8.16L71.36 8.16L71.36 12.73L71.36 12.73Q71.36 13.02 71.05 13.02L71.05 13.02L69.87 13.02L69.87 13.02Q69.58 13.02 69.58 12.73L69.58 12.73L69.58 8.25L69.58 8.25Q69.58 7.80 69.39 7.61L69.39 7.61L69.39 7.61Q69.20 7.42 68.75 7.42L68.75 7.42L68.25 7.42L68.25 7.42Q67.28 7.42 67.28 8.48L67.28 8.48L67.28 12.73L67.28 12.73Q67.28 13.02 66.99 13.02Z"></path></g><!----><!----></svg>